<mxfile host="app.diagrams.net" modified="2020-10-16T08:59:18.688Z" agent="5.0 (Windows NT 10.0; Win64; x64) AppleWebKit/537.36 (KHTML, like Gecko) Chrome/85.0.4183.102 Safari/537.36" etag="Gul-j-yZ7uWFlefGAkXY" version="13.8.0" type="github" pages="2">
  <diagram id="d55dYAp35ry6PAoLyxzK" name="Page-1">
    <mxGraphModel dx="1038" dy="580" grid="1" gridSize="10" guides="1" tooltips="1" connect="1" arrows="1" fold="1" page="1" pageScale="1" pageWidth="827" pageHeight="1169" math="0" shadow="0">
      <root>
        <mxCell id="0" />
        <mxCell id="1" parent="0" />
      </root>
    </mxGraphModel>
  </diagram>
  <diagram id="UPP4p9s0zhaqWL3Dca_s" name="Page-2">
    <mxGraphModel dx="1038" dy="580" grid="1" gridSize="10" guides="1" tooltips="1" connect="1" arrows="1" fold="1" page="1" pageScale="1" pageWidth="827" pageHeight="1169" math="0" shadow="0">
      <root>
        <mxCell id="69yyvrFc_0hbgdnAWkqg-0" />
        <mxCell id="69yyvrFc_0hbgdnAWkqg-1" parent="69yyvrFc_0hbgdnAWkqg-0" />
      </root>
    </mxGraphModel>
  </diagram>
</mxfile>
